<?xml version="1.0" standalone="no"?>
<!DOCTYPE svg PUBLIC "-//W3C//DTD SVG 20010904//EN"
 "http://www.w3.org/TR/2001/REC-SVG-20010904/DTD/svg10.dtd">
<svg version="1.0" xmlns="http://www.w3.org/2000/svg"
 width="693.000000pt" height="462.000000pt" viewBox="0 0 693.000000 462.000000"
 preserveAspectRatio="xMidYMid meet">

<g transform="translate(0.000000,462.000000) scale(0.100000,-0.100000)"
fill="#000000" stroke="none">
<path d="M1715 4050 l-410 -410 -616 0 c-591 0 -618 -1 -640 -19 -20 -16 -22
-23 -14 -47 l10 -29 138 -3 137 -3 0 -1719 c0 -1707 0 -1720 20 -1740 24 -24
29 -24 58 -4 22 15 22 19 22 240 l0 224 1021 0 1021 0 132 -65 c291 -143 596
-207 921 -191 296 14 534 77 784 207 l94 49 1249 0 c842 0 1256 3 1269 10 22
12 26 59 7 78 -8 8 -66 12 -195 12 l-183 0 0 1639 c0 1477 -2 1641 -16 1655
-21 21 -40 20 -64 -4 -18 -18 -20 -33 -20 -155 l0 -135 -438 0 -437 0 -410
410 -410 410 -1310 0 -1310 0 -410 -410z m3362 -40 l371 -370 -424 0 -425 0
-52 39 c-29 22 -93 64 -144 95 -637 387 -1463 355 -2068 -79 l-76 -55 -419 0
-418 0 371 370 372 370 1270 0 1270 0 372 -370z m-1510 -71 c808 -67 1453
-643 1615 -1443 20 -97 23 -141 23 -341 -1 -201 -4 -243 -23 -335 -105 -484
-368 -879 -762 -1142 -242 -161 -512 -258 -799 -287 -498 -51 -967 93 -1349
413 -296 249 -513 617 -591 1003 -131 644 113 1325 621 1736 315 254 677 387
1105 406 18 0 90 -4 160 -10z m-1508 -486 c-97 -103 -181 -215 -251 -332 -50
-85 -132 -258 -144 -305 l-6 -26 -619 0 -619 0 0 375 0 375 861 0 861 0 -83
-87z m4381 -288 l0 -375 -618 0 -617 0 -24 63 c-83 216 -233 448 -405 625
l-60 62 862 0 862 0 0 -375z m-4810 -439 c0 -2 -11 -46 -25 -98 -70 -265 -77
-563 -20 -844 90 -442 334 -834 695 -1116 l35 -27 -947 -1 -948 0 0 1045 0
1045 605 0 c333 0 605 -2 605 -4z m4810 -1041 l0 -1045 -947 0 -948 1 35 27
c330 257 575 630 674 1029 75 298 75 631 1 925 -14 54 -25 101 -25 103 0 3
272 5 605 5 l605 0 0 -1045z"/>
<path d="M3238 3296 c-649 -115 -1078 -752 -938 -1396 75 -349 316 -650 642
-805 234 -111 529 -139 780 -75 450 115 789 484 863 940 96 595 -276 1161
-865 1317 -118 31 -358 40 -482 19z m389 -101 c411 -78 731 -377 840 -783 24
-87 27 -115 27 -267 -1 -186 -11 -245 -73 -400 -126 -313 -418 -562 -747 -635
-93 -21 -237 -29 -341 -19 -367 34 -692 261 -853 594 -61 125 -87 219 -102
363 -57 549 336 1058 891 1152 80 13 275 11 358 -5z"/>
<path d="M894 3366 c-154 -72 -187 -274 -62 -393 45 -44 100 -65 169 -64 99 0
174 48 215 136 97 207 -115 418 -322 321z m179 -50 c67 -28 107 -93 107 -172
0 -160 -192 -237 -310 -125 -145 138 18 376 203 297z"/>
</g>
</svg>
